<svg width="27" height="27" viewBox="0 0 27 27" fill="none" xmlns="http://www.w3.org/2000/svg">
<path d="M6.46917 22.8466L4.62149 6.95993C4.49681 5.88796 3.58881 5.07944 2.50961 5.07944C2.04094 5.07944 1.73232 4.59092 1.93359 4.16768L2.63166 2.69978C2.90755 2.11963 3.49263 1.75 4.13504 1.75H22.0176C22.5556 1.75 23.0605 2.01 23.3729 2.44798L24.6918 4.29698C24.9256 4.62463 24.6913 5.07944 24.2889 5.07944C23.4752 5.07944 22.783 5.67256 22.6583 6.4766L20.1023 22.9597C19.8756 24.4216 18.617 25.5 17.1377 25.5H9.44909C7.92631 25.5 6.64509 24.3592 6.46917 22.8466Z" stroke="currentColor" stroke-width="2.5"/>
<circle cx="13.375" cy="13.625" r="3.125" stroke="currentColor" stroke-width="2.5"/>
</svg>
